<mxfile host="app.diagrams.net" modified="2024-07-09T12:12:54.480Z" agent="Mozilla/5.0 (Macintosh; Intel Mac OS X 10_15_7) AppleWebKit/537.36 (KHTML, like Gecko) Chrome/124.0.0.0 Safari/537.36" version="24.4.9" etag="PzRG9LTH9fAFAyGCves7" type="github">
  <diagram name="페이지-1" id="QQOaArwKHw5VwZPp2xwQ">
    <mxGraphModel>
      <root>
        <mxCell id="0" />
        <mxCell id="1" parent="0" />
      </root>
    </mxGraphModel>
  </diagram>
</mxfile>
